<?xml version="1.0" encoding="utf-8"?>
<!-- Generator: Adobe Illustrator 27.8.1, SVG Export Plug-In . SVG Version: 6.00 Build 0)  -->
<svg version="1.1" id="Layer_2" xmlns="http://www.w3.org/2000/svg" xmlns:xlink="http://www.w3.org/1999/xlink" x="0px" y="0px"
	 viewBox="0 0 482.8 196.2" style="enable-background:new 0 0 482.8 196.2;" xml:space="preserve">
<style type="text/css">
	.st0{fill:#E39F24;}
	.st1{fill:#243C7C;}
</style>
<g id="Layer_1-2">
	<g id="wNBdKN.tif">
		<path class="st0" d="M65.9,156.9c-3.7,1.1-7.3,2.3-11,3.5c-0.7,0.2-1.3,0.4-2.1,0.7c-2,1.1-3.5,0.6-5.2-0.9
			c-8.5-7.4-15.2-16.1-20.1-26.3c-3.1-6.5-5.3-13.2-6.5-20.3c-1.5-8.7-1.5-17.5-0.2-26.3C25.9,53.7,52.5,26.6,86,21.1
			c29.6-4.9,54.9,4.1,75,26.5c8.8,9.8,14.4,21.4,17.4,34.2c1.8,7.8,2.4,15.8,1.8,23.8c-0.7,10-3.3,19.5-7.7,28.6
			c-5,10.3-11.9,19.1-20.6,26.6c-1,0.9-1.8,1.1-3.1,0.6c-4.5-1.8-9.2-3.2-14.2-4.7c2.2-1.5,4.4-2.9,6.3-4.4
			c12.1-9.5,20.2-21.6,23.9-36.6c3.4-13.6,2.7-27-2.6-39.9c-8.9-22.1-25.2-35.6-48.4-41c-0.4-0.1-0.9-0.2-1.2-0.5
			c-4.3-4.4-9.7-5.2-15.6-4.5c-3.7,0.4-7,1.8-9.7,4.4c-0.4,0.4-0.8,0.5-1.3,0.7C67.5,39,53,49.2,42.9,65.5c-5.6,9.1-8.7,19.2-9.4,30
			c-0.9,15.4,3,29.4,11.7,42c5.2,7.6,11.8,13.7,19.5,18.5C65.2,156.3,65.7,156.4,65.9,156.9L65.9,156.9z"/>
		<path class="st0" d="M70.2,155.6c-0.7,0.5-1.3,0.4-2,0.1c-8.8-5-16.2-11.7-21.8-20.1c-5-7.3-8.3-15.3-9.9-23.9
			C35.2,104.9,35.1,98,36,91c0.8-6,2.4-11.8,4.9-17.3c6.1-13.6,15.8-23.9,29-30.9c4.4-2.3,9-4.1,13.8-5.4c0.3-0.1,0.7-0.3,1.2,0
			c-0.6,1.5-1.5,3-1.9,4.7c-0.1,0.7-0.7,0.7-1.2,0.8c-8.9,2.8-16.8,7.5-23.5,14C51.5,63.4,46.6,71.1,43.4,80
			c-2.8,8.1-3.9,16.3-3.2,24.7c1,11.4,4.9,21.7,11.9,30.9c1.3,1.7,2.6,3.3,4,4.8c0.3,0.3,0.7,0.7,0.6,1.1c-0.2,1.5,0.7,2.5,1.6,3.5
			c3.5,3.7,7.4,6.8,11.2,10.1C69.9,155.3,70,155.5,70.2,155.6L70.2,155.6z"/>
		<path class="st0" d="M132.2,155.3c3.8-3.1,7.4-6.6,9.6-11c2-4.2,5.4-7.2,7.9-11c5.8-8.7,9.2-18.1,10.2-28.5
			c1-11.8-1.2-23.1-6.9-33.4c-7.7-14.1-19.3-23.5-34.5-28.6c-0.9-0.3-1.4-0.7-1.6-1.6c-0.4-1.4-1-2.7-1.8-4
			c22.1,4.3,45.1,24.3,49.2,53.3C168.6,121.9,150,146.3,132.2,155.3L132.2,155.3z"/>
		<path class="st0" d="M126.9,59.8c1.8,1.2,2.4-0.7,3.3-1.6c1.4-1.4,2.7-2.8,3.9-4.2c0.5-0.6,0.8-0.5,1.3,0
			c4.1,3.1,7.6,6.6,10.7,10.6c0.4,0.5,0.4,0.8-0.1,1.2c-1.9,1.8-3.8,3.6-5.8,5.3c-0.3,0.3-0.7,0.4-0.4,1c0.8,1.8-0.2,3-1.5,4
			c-1.4,1.2-3.2,1.8-5,2.1c-2.8,0.5-5,1.8-6.9,3.8c-0.3,0.3-0.6,0.7-1.2,0.5c-3.1-1.2-6.4-1.7-9.4-3c-1.9-0.8-2.2-1.9-0.7-3.4
			c2-2,4.2-3.8,5.5-6.4c0.9-1.8,0.9-3.9,1.8-5.8c0.4-1,0.9-1.9,1.6-2.7C124.7,60.5,125.6,59.9,126.9,59.8L126.9,59.8z"/>
		<path class="st0" d="M60.8,73.3V73c1.1-1.6-0.4-2.2-1.3-3.1c-1.6-1.5-3.3-3.1-4.9-4.6c-0.4-0.4-0.7-0.7-0.2-1.3
			c2.9-3.6,6.2-6.9,9.8-9.8c0.7-0.5,1-0.5,1.6,0.1c1.8,2,3.7,3.9,5.5,5.9c0.4,0.4,0.7,0.7,1.4,0.3c1-0.6,1.9-0.1,2.7,0.6
			c1.3,1,2.1,2.5,2.2,4c0.6,4.9,3.6,8.2,7,11.3c2,1.9,2,1.9-0.6,2.9c-2.8,1.1-5.8,1.7-8.4,3.1c-0.6,0.3-0.9-0.1-1.2-0.4
			c-2.2-2.3-4.8-3.9-8-4.4c-1.6-0.3-3.3-0.9-4.6-2.1C61.4,74.9,60.9,74.1,60.8,73.3L60.8,73.3z"/>
		<path class="st0" d="M47.9,91.8c1,0.1,1.9,0.1,2.9,0.2c1.1,0.1,2.1,0.3,2.7-1.3c0.4-1,1.6-1,2.7-1c2,0.1,3.6,0.9,5.2,2
			c1.8,1.2,3.6,2,5.7,2.2c0.7,0.1,0.8,0.3,0.6,0.9c-1,3.3-1.9,6.6-2.8,9.8c-0.2,0.7-0.6,1.1-1.3,1.5c-1.5,0.7-2.8,1.6-4.3,2.3
			c-1,0.6-2.1,0.9-3.3,0.9s-2.2-0.3-2.7-1.5c-0.3-0.7-0.6-0.8-1.3-0.8c-2.7,0.1-5.3,0.2-8,0.3c-0.9,0.1-1.3-0.2-1.4-1.1
			c-0.4-4.5-0.4-9,0-13.5c0.1-0.9,0.4-1.2,1.4-1.2c1.3,0.1,2.7,0,4,0C47.9,91.8,47.9,91.8,47.9,91.8L47.9,91.8z"/>
		<path class="st0" d="M134.3,93.7c2.4-0.2,4.1-1.8,6.1-2.8c1.4-0.7,2.9-1.3,4.4-1.2c1,0.1,2,0.3,2.4,1.4c0.3,1,0.9,0.9,1.6,0.9
			c2.6-0.1,5.1-0.2,7.7-0.3c0.8-0.1,1,0.2,1.1,1c0.6,4.5,0.6,9,0,13.6c-0.1,0.9-0.3,1.2-1.3,1.1c-2.7-0.2-5.3-0.2-8-0.3
			c-0.6,0-0.9,0-1.2,0.7c-0.4,1.3-1.6,1.6-2.9,1.5c-2.3-0.2-4.2-1.3-6-2.5c-0.3-0.2-0.3-0.4-0.4-0.7C137,102.1,135.7,98,134.3,93.7
			L134.3,93.7z"/>
		<path class="st0" d="M167.4,40.2c0,3-1.7,5.4-4.4,6.5c-0.7,0.3-1.3,0.2-1.8-0.4c-2-2.3-4.2-4.5-6.5-6.5c-0.8-0.7-0.8-1.2-0.4-2.1
			c1.3-3,4.5-4.8,7.6-4.1C165.1,34.2,167.3,36.9,167.4,40.2L167.4,40.2z"/>
		<path class="st0" d="M168,159.8c0,3-2,5.6-4.8,6.5c-0.7,0.2-1.3,0.2-2-0.2c-1.7-0.8-3.4-1.6-5.1-2.4c-1.8-0.8-2.2-3-0.8-4.2
			c2.1-1.9,4.1-3.8,5.9-5.9c0.6-0.7,1.1-0.7,1.8-0.4C165.8,154.1,168,156.9,168,159.8L168,159.8z"/>
		<path class="st0" d="M32.5,160.1c0-3.2,2.1-6,4.9-6.8c0.8-0.2,1.4-0.1,1.9,0.6c1.8,2.1,3.8,4,5.8,5.9c1.4,1.3,1,3.6-0.7,4.3
			s-3.5,1.6-5.3,2.3c-1.9,0.7-3.3-0.4-4.5-1.6C33.2,163.4,32.6,161.7,32.5,160.1L32.5,160.1z"/>
		<path class="st0" d="M99.8,15.6c0,0.1,0,0.5-0.1,0.9c-0.6,2.1-0.7,2.2-2.8,2.4c-2.5,0.2-5,0.2-7.5,0.7c-0.9,0.2-1.4-0.2-1.8-0.9
			c-1.9-2.9-0.9-7,2-9s7.1-1.1,9,1.7C99.4,12.8,99.8,13.9,99.8,15.6L99.8,15.6z"/>
		<path class="st0" d="M8.7,91.9c0.1-2.1,1.3-4,3.6-5.2c2.2-1.2,4.4-1,6.6,0.3c0.6,0.3,0.8,0.8,0.8,1.5c-0.3,3-0.7,5.9-0.7,8.9
			c0,0.8-0.5,1-1.1,1.3C13.5,100.5,8.6,97.3,8.7,91.9L8.7,91.9z"/>
		<path class="st0" d="M113.9,15.5c-0.1,0.3-0.1,0.9-0.2,1.5c-0.6,2.2-1.3,2.6-3.5,2.4c-2.4-0.3-4.8-0.4-7.3-0.5
			c-1,0-1.5-0.5-1.8-1.3c-0.9-2.4-0.2-5.4,1.6-7.1c2.1-1.9,4.5-2.4,7.1-1.3C112.5,10.2,114,12.5,113.9,15.5z"/>
		<path class="st0" d="M184.7,99.3c-0.2,0-0.7-0.1-1.1-0.2c-2-0.5-2.1-0.7-2.2-2.7c-0.1-2.5-0.3-5-0.7-7.6c-0.1-0.9,0.1-1.3,0.7-1.6
			c2-1.4,5-1.4,7.2,0c2.2,1.4,3.4,4.1,2.9,6.7C190.8,97,188.2,99.2,184.7,99.3L184.7,99.3z"/>
		<path class="st0" d="M191.6,106.9c0,2.6-1.1,4.5-3.4,5.7c-2.3,1.3-4.6,1-6.8-0.3c-0.6-0.3-0.8-0.7-0.7-1.5
			c0.4-2.7,0.7-5.5,0.7-8.4c0-0.9,0.3-1.3,1.1-1.6C186.8,98.9,191.6,102.1,191.6,106.9z"/>
		<path class="st0" d="M19.7,110.9c0.2,0.7-0.3,1.2-1.1,1.6c-2.7,1.5-6,0.9-8.2-1.4c-2-2.1-2.2-5.7-0.6-8.1c1.9-2.6,5.2-3.6,8.1-2.4
			c0.6,0.3,1.1,0.6,1.1,1.4c0,1.4,0,2.8,0.2,4.3S19.5,109.2,19.7,110.9L19.7,110.9z"/>
		<path class="st0" d="M40.8,34.4c1.9,0,3.8,1.3,5.2,3.6c0.4,0.7,0.3,1.1-0.3,1.6c-2.6,2.3-5.1,4.8-7.3,7.4c-0.5,0.7-1,0.5-1.6,0.2
			c-2.7-1.4-4.3-4.6-3.6-7.5C34.1,36.5,36.7,34.4,40.8,34.4z"/>
		<path class="st0" d="M12.5,99.7c-2.5,1.3-4.2,3.1-4.6,5.8c-0.1,0.7-0.6,0.8-1.1,0.8c-2.6,0-4.7-1.1-5.9-3.3
			c-1.3-2.2-1.2-4.5,0.1-6.7c1.4-2.2,3.4-3.2,6-3.1c0.7,0,0.8,0.4,0.9,0.8C8.4,96.6,10,98.4,12.5,99.7L12.5,99.7z"/>
		<path class="st0" d="M100.2,12.3c-1.1-2.5-3-4-5.6-4.5c-0.7-0.2-0.9-0.4-0.9-1c-0.2-3.1,2.1-5.9,5.3-6.6c3-0.7,6.3,1.1,7.4,3.9
			c0.2,0.6,0.4,1.2,0.5,1.9c0.3,1.2,0.1,1.9-1.3,2.1C103.3,8.4,102.6,9.1,100.2,12.3z"/>
		<path class="st0" d="M187.7,99.8c2.7-1.3,4.2-3.2,4.7-5.8c0.1-0.6,0.4-0.7,0.9-0.8c3.5-0.3,6.8,2.8,6.8,6.6
			c0.1,3.7-3.2,6.9-6.8,6.6c-0.5-0.1-0.9-0.1-1-0.7C192,103,190.5,101,187.7,99.8L187.7,99.8z"/>
		<path class="st0" d="M58.6,130.2c0,0.4,0.1,0.4,0.1,0.6c-0.5,2.5-1,5-1.5,7.8c-1.1-1.3-2-2.5-3-3.6c-0.2-0.2-0.3-0.5,0-0.7
			C55.7,132.9,57,131.6,58.6,130.2z"/>
		<path class="st0" d="M143.1,138.4c0-2.5,0-4.8-0.4-7.2c1.4,0.9,2.4,2,3.4,3c0.3,0.2,0.3,0.4,0.1,0.7
			C145.2,136,144.4,137.2,143.1,138.4L143.1,138.4z"/>
		<path class="st0" d="M169.1,174.1c-2-1.7-4.2-3.1-6.5-4.4c-8.9-4.8-18.4-8-28-10.9c-2.6-0.8-5.3-1.5-8.2-2.3
			c5.1-2.7,8.8-6.5,12.2-10.8c1.8-2.3,2.6-4.7,2.4-7.6c-0.2-3.9-0.4-7.8-1-11.7c-1-6.3-2.2-12.6-3.8-18.8c-1.4-5.3-3-10.5-4.7-15.8
			c-1.3-4.1-3.7-6.8-8-7.8c-1-0.2-2-0.6-3.1-0.8c-2.3-0.7-4.8-1.3-6.9-2.5c-3.6-2-5.3-5-5.6-9c-0.1-0.5-0.1-0.9,0.5-1.3
			c3.1-2,5-4.9,6.2-8.3c0.3-0.7,0.4-1.6,1.5-1.5c0.6,0,1-0.6,1.3-1.2c1.1-2,1.6-4.2,1.4-6.5c-0.1-1-0.7-1.9-1.7-2.1
			c-0.7-0.1-0.8-0.4-0.8-1c-0.1-2.5-0.4-4.8-1.1-7.2c-1.6-5.6-5-9.6-11-10.9c-2.3-0.5-4.8-0.5-7.1-0.1c-5.5,0.9-9.4,3.8-11.4,9.1
			c-1.1,2.8-1.5,5.8-1.6,8.7c0,0.4,0.3,1-0.6,1.2c-1.5,0.3-1.9,1.5-1.9,2.8c0,2.2,0.4,4.3,1.6,6.1c0.4,0.5,0.8,1.1,1.5,1
			c0.8,0,0.8,0.4,1,0.9c1.2,3.3,3,6.3,5.9,8.4c0.7,0.5,0.8,1,0.7,1.8c-0.5,4.6-2.7,7.9-7.2,9.4c-2.6,0.9-5.2,1.5-7.7,2.7
			c-2.7,1.3-4.9,3.1-6,6.1c-1.7,4.4-3,8.9-4.3,13.5c-1.9,6.7-3.5,13.6-5,20.4c-1.2,5.5-2.3,11.1-3.2,16.7c-0.2,1.1,0,2.1,0.9,3
			c2.3,2.4,4.9,4.6,7.4,6.8c2.4,2.1,4.9,4.1,7.4,6.3c-3.6,1-6.9,1.9-10.3,2.9c-10,3-19.8,6.2-29,11.2c-3.3,1.8-6.5,3.7-8.6,6.9
			c-1.6,2.5-1.3,4.3,1.1,6c0.4,0.3,0.9,0.6,1.4,0.8c3.1,1.5,6.5,2.2,9.9,2.7c11.8,1.8,23.7,1.7,35.6,0.5c7.1-0.8,14.3-0.8,21.3,1.4
			c3.8,1.2,7.8,1.6,11.8,1.1c6.1-0.7,12.2-1.4,18.3-2c4.1-0.4,8.2-0.8,12.2-1c4-0.3,7.8,0.9,11.6,1.9c0.7,0.2,1.6,0.6,2.1-0.4
			c0.5-0.9,0.6-1.9-0.1-2.9c-0.3-0.4-0.7-0.8-1.1-0.9c-2.8-0.6-5-2.2-7.2-4c-0.6-0.4-1.2-0.6-1.9-0.9c-2.1-0.8-4.4-1.3-6.7-1.4
			c-4-0.1-7.4-1.3-10.3-4.2c-0.2-0.2-0.6-0.4-0.8-0.6c-1.4-1.4-2.8-1.3-4.4-0.4c-2.1,1.1-4.1,2.7-5.9,4.2c-1.6,1.3-3.4,1.9-5.5,2.1
			c-2.6,0.2-5.2,0.1-7.8-0.1c-6.2-0.6-12.1-2.1-17.5-5.2c-4.1-2.4-8.4-4.3-13.2-4.8c-2.2-0.2-4.5-0.4-6.7-0.7
			c-0.4-0.2-0.8,0-1.2-0.2c-0.4-0.2,0.1-0.2,0.1-0.3c7.2-0.9,14.2-0.3,20.5,3.4c6.7,4,13.9,5.8,21.6,6c3.8,0.1,7.4-0.2,10.3-3.1
			c1.5-1.5,3.4-2.6,5.4-3.5c1.9-0.8,3.6-0.7,5.2,0.7c0.9,0.8,1.9,1.5,2.8,2.2c1.4,1,2.7,2,4.5,2.1c1.3,0.1,2.5,0.2,3.7,0.3
			c3.9,0.4,7.8,1.2,10.9,4.1c0.8,0.8,1.7,1.3,2.8,1.5c2.8,0.7,5.2,2.6,4.6,5.6c-0.1,0.6,0.2,0.7,0.7,0.7c4.3-0.2,8.6-0.6,12.5-2.6
			C173.2,183,173.7,178.1,169.1,174.1L169.1,174.1z M88.1,151.8c-0.6,0.4-0.9,0.8-1.5,0.1c-3-3.2-6.2-6.2-9.6-8.8
			c-1.2-0.9-2.4-1.7-3.6-2.5c-0.6-0.4-1.4-0.6-0.7-1.7c0.7-1,1.2-0.4,1.7-0.1l6.4,4.7c0.2,0.2,0.5,0.4,1,0.7c0.1-2.1,0.3-4.1,0.3-6
			c0.2-6.3,0.1-12.6-0.2-18.9c-0.1-1.4-0.2-2.8-0.6-4.2c-0.3-1.1,0.4-1,1-1.2c0.8-0.3,0.9,0.3,1,0.9c0.4,4.1,0.8,8.1,0.9,12.2
			c0,5.1,0.4,10.4-0.4,15.4c-0.4,2.7,0.5,4.4,2.4,5.9c0.8,0.6,1.4,1.4,2,2C88.6,150.8,88.9,151.3,88.1,151.8L88.1,151.8z
			 M111.4,155.7c-0.5,0.6-0.8,0.9-1.5,0.3c-0.7-0.6-0.8-0.8-0.2-1.6c2.8-3.4,5.7-6.8,8.9-9.9c0.7-0.7,0.9-1.3,0.7-2.1
			c-1.4-7.4-1.3-14.9-0.7-22.5c0.1-1.4,0-2.7,0.3-4.1c0.1-0.6,0-1.2,1-1c0.9,0.1,1.1,0.4,1,1.3c-0.3,2.6-0.6,5.3-0.7,7.9
			c-0.4,5.7-0.2,11.4,0.8,17.1c0.1,0.2,0.1,0.4,0.2,0.7c1.8-1.4,3.5-2.7,5.4-3.9c1-0.6,1.5-0.4,1.9,0.6c0.2,0.5,0.1,0.7-0.3,0.9
			C121.6,143.8,116.3,149.6,111.4,155.7L111.4,155.7z"/>
	</g>
	<path class="st1" d="M231,87.6c-7.7,0-13.3-2.5-14-10.8H228c0.1,3.6,1,6.4,5.2,6.4c4.5,0,5-3.7,5.2-7.4c0.2-2.2,0.2-4.5,0.2-6.8
		V36.8c0-8.4-1.1-8-9.2-9v-2l19.3-2.1V67C248.8,79.8,245.2,87.6,231,87.6z"/>
	<path class="st1" d="M280,87.6c-14.4,0-19.9-9-19.9-22.3s5.1-22.5,19.9-22.5c13.7,0,19.9,9.7,19.9,22.5
		C299.9,78.9,294.7,87.6,280,87.6z M280,45.9c-9.6,0-9.8,12.5-9.8,19.3s0.4,19.2,9.8,19.2s9.8-12.2,9.8-19.2S289.5,45.9,280,45.9z"
		/>
	<path class="st1" d="M329.8,90.1c-3.1,7.8-6.4,15.3-16.1,15.3c-7.5,0-12.1-4.5-12.8-11.8h10.6c0,3.3,0.8,6.8,4.9,6.8
		c5.1,0,7.1-7.4,8.6-11.1l-14.8-35.3c-2.2-5.3-3.5-8-9.8-8.3v-1.8h15.6l13.6,33.9l13.2-33.8h5.2L329.8,90.1L329.8,90.1z"/>
	<path class="st1" d="M398.8,87.6c-14.4,0-19.9-9-19.9-22.3s5.1-22.5,19.9-22.5c13.7,0,19.9,9.7,19.9,22.5
		C418.6,78.9,413.4,87.6,398.8,87.6z M398.8,45.9c-9.6,0-9.8,12.5-9.8,19.3s0.4,19.2,9.8,19.2s9.8-12.2,9.8-19.2
		S408.2,45.9,398.8,45.9z"/>
	<path class="st1" d="M453,33c-0.1-3.7-1.6-7.7-5.9-7.7c-5.4,0-5.7,6.2-5.7,10.2v8.3h12.2v3.7h-12.2v39.1h-9.2V47.5h-7.5v-3.7h7.5
		v-6.2c0-9.1,4.6-15.5,14.3-15.5c8.2,0,15.5,1.8,16.8,10.9L453,33L453,33z"/>
	<path class="st1" d="M262.9,176.6h-37.4v-49.8c0-8.4-1.2-8-9.2-9v-2l19.3-2.1v51.7c0,6.4-0.4,6.9,6.2,6.9h7.9
		c6.8,0,10.9-1.1,10.9-9h2.6L262.9,176.6L262.9,176.6z"/>
	<path class="st1" d="M275.2,176.6v-30.8c0-5.8-1-8-7.1-8.2v-1.8l16.3-2.9v43.8H275.2z M279.9,125.5c-3.2,0-5.7-2.7-5.7-5.8
		s2.7-5.7,5.8-5.7s5.9,2.5,5.9,5.7S283.1,125.5,279.9,125.5L279.9,125.5z"/>
	<path class="st1" d="M319.7,176.6H313l-13.2-32.7c-2.3-5.7-3-7.7-9.6-8.3v-1.8h15.4l12.9,32.4l12.5-32.4h5.2L319.7,176.6
		L319.7,176.6z"/>
	<path class="st1" d="M346.7,176.6v-30.8c0-5.8-1-8-7.1-8.2v-1.8l16.3-2.9v43.8H346.7z M351.4,125.5c-3.2,0-5.7-2.7-5.7-5.8
		s2.7-5.7,5.8-5.7s5.9,2.5,5.9,5.7S354.7,125.5,351.4,125.5L351.4,125.5z"/>
	<path class="st1" d="M398.5,176.6v-23.8c0-4.8,0.7-13.7-6.2-13.7s-11.3,9.4-11.3,15.1v22.4h-9.2v-30.8c0-6-1.2-8-7.4-8.2v-1.8
		l16.6-2.9v11.8h0.2c2.7-6.2,8.3-11.8,15.4-11.8c8.1,0,11.1,5.6,11.1,13v30.8H398.5L398.5,176.6z"/>
	<path class="st1" d="M456,142.2V178c0,12.7-4.5,18.2-17.9,18.2c-9.2,0-19.2-1.5-19.2-12.9h10.4c0,5.6,2.5,9.8,8.6,9.8
		c8.1,0,8.9-5.5,8.9-12.1v-10.8h-0.2c-2.8,4.7-6.1,6.4-11.6,6.4c-11.9,0-16.2-10-16.2-20.4s3-23.4,16.3-23.4c5,0,8.9,2.2,11.5,6.4
		h0.2v-5.3h16.5v1.8C458.8,135.6,456,137.3,456,142.2L456,142.2z M446.8,149.3c0-5.1-2.6-11.6-8.6-11.6c-8.6,0-9.2,10.9-9.2,17.1
		c0,5.7,0.6,16.7,8.5,16.7c7.4,0,9.4-7.1,9.4-13.2L446.8,149.3L446.8,149.3z"/>
	<path class="st1" d="M477.8,125.3c-0.2-0.2-0.4-1.1-0.6-2c-0.2-0.7-0.4-1.1-0.8-1.4c0.7-0.4,1.1-1.2,1.1-2c0-0.7-0.3-1.3-0.8-1.7
		c-0.6-0.5-1.4-0.7-2.6-0.7c-0.8,0-1.5,0.1-2.1,0.2l-0.3,0.1v8.1h1.8v-3.3h0.6c0.8,0,1.1,0.3,1.3,1.2c0.3,1.2,0.4,1.7,0.6,1.9
		l0.1,0.2h1.9L477.8,125.3L477.8,125.3z M473.5,119.1h0.7c1,0,1.5,0.4,1.5,1.1c0,0.8-0.7,1.1-1.5,1.1h-0.7V119.1z"/>
	<path class="st1" d="M474.4,130.2c-4.6,0-8.4-3.8-8.4-8.4s3.8-8.4,8.4-8.4s8.4,3.8,8.4,8.4S479,130.2,474.4,130.2z M474.4,115.1
		c-3.6,0-6.7,3-6.7,6.7s3,6.7,6.7,6.7s6.7-3,6.7-6.7S478.1,115.1,474.4,115.1z"/>
</g>
</svg>
