<?xml version="1.0" encoding="UTF-8"?>
<svg id="Ebene_1" xmlns="http://www.w3.org/2000/svg" version="1.1" viewBox="0 0 11355.857 2928.691">
  <!-- Generator: Adobe Illustrator 30.4.0, SVG Export Plug-In . SVG Version: 2.1.4 Build 226)  -->
  <defs>
    <style>
      .st0 {
        fill: #1b4087;
      }

      .st1 {
        fill: #e9a10c;
      }

      .st2 {
        fill: #818181;
        stroke: #1b4087;
        stroke-miterlimit: 10;
        stroke-width: 40px;
      }

      .st3 {
        fill: #fcfcfb;
      }

      .st4 {
        fill: #e39f24;
      }
    </style>
  </defs>
  <path class="st4" d="M1698.768,2762.457c26.331-4.523,47.096-29.141,66.442-42.184l79.167-53.374c8.156-5.499,30.707-9.979,38.022-4.354l74.965,57.65c21.564,16.583,45.119,21.624,72.117,25.363l118.105,16.355c43.79,10.73,80.61,33.387,108.456,67.075,36.637,5.307,77.268,16.323,82.178,45.688,1.689,10.103-3.804,33.291-13.116,35.33-17.356-.326-36.213-4.292-51.324-9.366-76.413-25.661-150.216-21.519-228.701-15.072l-115.733,9.507-255.454,29.682c-68.446,7.953-131.479,4.371-197.051-15.591-149.233-45.431-289.756-24.052-442.739-12.995-141.637,10.237-280.943,4.048-421.198-14.416-66.683-8.779-198.879-38.102-213.33-94.03-15.119-58.514,80.594-122.636,136.347-154.126,174.18-98.379,414.491-168.589,613.163-220.42l-172.616-147.076c-28.234-24.056-52.237-48.115-74.229-78.397,15.811-113.348,36.826-220.819,63.291-331.096l45.74-190.601c21.767-90.703,47.087-177.521,78.452-265.114,9.682-27.039,23.149-53.425,43.61-72.227,100.28-92.144,273.992-38.036,283.352-240.892-54.719-38.002-88.907-91.862-107.264-154.642-17.992,1.714-31.822-5.547-38.874-21.186-24.604-54.564-39.384-124.457,15.335-131.862,1.16-51.085,7.155-98.94,23.942-146.918,42.997-122.888,158.558-164.242,283.45-143.409,69.956,11.669,124.163,58.493,153.511,122.392,24.433,53.198,31.336,109.577,33.895,168.849,56.052,3.653,42.507,84.203,16.028,134.288-7.059,13.351-20.648,19.453-35.941,17.235-18.765,62.45-52.921,118.606-110.604,154.651.655,101.71,53.201,151.509,148.099,180.796l131.261,40.509c31.027,9.575,54.787,32.406,65.437,62.999l57.913,166.358c58.423,203.367,112.507,437.99,103.814,649.92-53.474,88.209-127.666,170.227-222.926,221.745,160.189,42.803,313.085,89.705,461.976,155.836,80.25,35.644,191.273,91.451,234.168,161.75,14.76,24.19,11.333,48.788-.868,73.535-42.435,86.068-164.407,98.145-261.534,101.617,7.627-31.306-.635-54.971-22.623-74.128-19.613-17.088-44.102-21.979-70.086-30.722-12.799-4.307-54.499-59.155-136.451-70.183l-127.947-17.217c-39.88-5.366-91.211-73.724-126.591-79.491-28.792-4.693-61.826,9.768-84.945,26.68l-103.095,75.417c-130.649,15.601-265.812-1.463-383.941-61.993-55.694-28.538-105.572-60.401-167.648-72.857-68.92-13.829-138.194-14.717-208.514-1.816l134.526,16.03c62.343,7.429,119.702,27.243,173.827,58.397,50.616,29.134,100.001,55.629,157.191,70.681,96.811,25.48,195.598,38.934,297.564,21.419ZM1281.367,2292.671l53.666,54.484,25.459-22.055-82.515-82.29c11.278-108.43,11.895-216.116,8.243-325.871-1.904-57.229-6.324-108.83-14.72-164.663l-29.095,5.176c13.399,82.993,15.358,162.767,15.688,247.067.281,71.757-.014,140.253-7.128,213.831-44.15-36.232-83.612-66.851-130.293-94.322l-15.421,28.451c65.058,40.896,122.808,86.074,176.114,140.192ZM1852.813,2237.828c39.388-36.707,72.394-71.135,121.32-93.989l-15.898-30.572-101.013,70.495c-12.917-76.176-20.817-146.258-15.817-219.201l13.407-195.553-31.091-3.578-13.983,207.18c-1.733,81.136,5.796,159.321,20.209,237.737-59.822,57.594-111.194,116.151-161.236,180.308l27.364,18.401,44.181-54.46c34.213-42.173,71.567-78.57,112.556-116.768Z"/>
  <path class="st4" d="M1730.178,529.229c-80.715-98.835-265.933-100.33-364.524-28.24l-34.422,29.399c-395.66,79.142-710.584,388.515-797.009,781.637-95.054,432.372,95.424,875.138,477.497,1102.276l-244.824,79.485-42.6-35.551-57.622-53.312c-304.98-302.519-428.6-742.594-328.068-1159.719,107.316-445.278,457.16-796.623,902.74-905.301,369.969-90.237,762.479-4.997,1059.618,233.837l66.006,56.655c316.566,290.921,456.534,725.637,371.567,1148.062-56.363,279.899-209.356,531.419-434.069,712.496l-241.293-80.891c360.716-218.289,550.569-633.061,479.402-1050.239-71.141-417.025-396.62-749.79-812.399-830.594Z"/>
  <path class="st4" d="M868.75,2170.239c.263,26.347,6.209,41.301,20.546,59.532,58.768,58.942,120.54,111.751,186.426,166.914-16.607,8.562-28.386.969-42.632-7.437-355.149-209.576-544.809-611.881-476.719-1020.53,63.841-383.153,355.418-704.993,743.875-797.381-13.319,28.654-24.485,52.656-31.129,81.343-294.826,86.384-526.905,323.218-613.606,605.36-100.887,328.305-17.261,668.848,213.239,912.197Z"/>
  <path class="st4" d="M2187.552,2200.368c2.532-4.897,3.456-17.052,3.66-22.757,200.599-204.434,293.37-488,253.873-772.68-49.409-356.117-305.819-651.102-648.63-753.155-8.394-28.973-18.282-51.406-33.359-81.664,541.483,129.168,870.507,677.357,728.77,1216.802-65.058,247.608-227.392,467.816-455.399,599.49,56.696-60.148,112.735-111.867,151.085-186.037Z"/>
  <path class="st4" d="M1929.857,1271.112l-131.522-38.938c-22.686-6.716-43.233-16.653-63.144-30.278l92.829-94.535c41.691-42.457,28.343-112.795,73.742-165.559,17.124-19.175,40.01-25.638,63.678-13.741l99.533-105.591c70.084,53.018,125.639,109.786,179.859,179.131l-31.497,31.26-73.82,68.28c11.442,21.671,7.507,46.442-11.564,63.052-23.108,20.126-53.659,30.577-83.943,39.425-45.556,6.224-82.556,27.567-114.15,67.494Z"/>
  <path class="st4" d="M1325.956,1203.537c-21.725,12.282-39.7,17.734-59.889,25.324l-112.189,42.176c-28.306-30.952-59.122-59.795-100.059-69.523-36.151-8.591-71.457-17.725-100.699-38.686-20.113-16.947-27.931-38.848-11.452-61.929l-113.42-105.641c49.127-63.478,103.908-119.054,170.286-169.562l105.202,111.956c20.22-11.157,41.535-12.292,58.386,8.297,45.379,55.442,31.37,122.734,77.182,169.372l86.653,88.217Z"/>
  <path class="st4" d="M946.891,1647.454c-29.177,15.799-57.019,31.341-88.062,35.477-25.409.756-44.479-10.71-47.112-35.966l-157.615,5.788c-10.995-80.912-10.833-158.988.276-240.305l158.156,5.375c1.316-27.241,21.842-36.84,46.408-37.226,68.517,8.703,104.193,65.605,177.945,66.544l-51.318,179.369-38.678,20.944Z"/>
  <path class="st4" d="M2261.528,1647.116c-8.184,20.792-19.989,37.472-45.455,35.58-35.895-2.668-72.848-19.636-100.428-42.196l-56.635-195.499c58.067-12.445,94.888-58.052,153.702-64.383,24.547.229,43.713,10.426,45.546,37.301l154.084-5.605c12.229,78.838,11.964,158.864.799,240.247l-151.613-5.445Z"/>
  <path class="st4" d="M2479.077,721.274c-39.708-45.001-78.688-85.208-122.525-123.575,11.298-53.201,58.686-86.858,110.166-83.227,50.699,3.576,91.501,42.432,96.202,94.477,4.596,50.879-28.241,99.562-83.843,112.325Z"/>
  <path class="st4" d="M714.532,2473.937c-.311,13.315-7.568,34.772-16.896,45.716l-100.477,43.687c-51.957-6.561-88.7-50.639-89.732-101.137-1.052-51.468,36.827-97.132,89.68-105.154l117.425,116.888Z"/>
  <path class="st4" d="M2369.739,2516.592c-9.137-8.298-15.403-31.063-16.327-43.537l116.717-116.31c51.772,7.288,90.284,51.203,90.923,101.519.661,52.079-34.238,96.122-88.023,105.331l-103.29-47.002Z"/>
  <path class="st4" d="M2780.069,1510.951l-13.071-158.115c36.488-37.042,96.45-35.254,133.882-1.563,39.347,35.415,45.272,92.674,13.116,135.515-29.754,39.642-86.77,53.118-133.927,24.163Z"/>
  <path class="st4" d="M2766.956,1719.09l12.797-157.629c41.047-30.738,99.118-19.422,131.786,19.186,33.073,39.086,30.595,97.675-5.878,133.903-36.813,36.566-95.083,42.223-138.705,4.54Z"/>
  <path class="st4" d="M1510.302,288.342c-55.183,1.875-105.921,5.075-158.822,11.773-35.561-39.436-33.503-96.857.884-134.672,33.621-36.972,91.681-42.361,132.782-13.196,42.05,29.838,54.438,89.107,25.155,136.095Z"/>
  <path class="st4" d="M1718.322,300.113l-156.826-11.635c-29.766-41.911-20.147-100.235,19.95-132.803,39.303-31.922,98.998-29.538,134.881,8.141,35.068,36.824,40.709,96.212,1.995,136.297Z"/>
  <path class="st4" d="M286.97,1560.634l11.56,156.17c-32.803,39.659-98.068,33.032-133.61-.535-36.941-34.888-41.685-93.923-9.203-135.687,28.44-36.567,91.882-53.017,131.253-19.948Z"/>
  <path class="st4" d="M299.483,1348.763c-5.931,54.084-10.313,104.76-10.991,160.5-41.8,27.659-100.79,18.926-132.219-20.403-31.368-39.252-29.661-98.087,6.013-133.745,36.143-36.127,92.536-42.489,137.197-6.352Z"/>
  <path class="st4" d="M709.995,598.966c-48.896,42.509-90.912,86.209-131.562,134.778-46.215-17.614-75.467-62.932-70.463-109.704,5.084-47.524,40.547-86.017,86.306-92.654,50.514-7.326,96.905,16.845,115.719,67.58Z"/>
  <path class="st4" d="M2878.907,1534.717c43.373-19.845,66.272-53.227,71.287-98.358,60.927-10.691,115.642,35.903,117.455,95.176,1.921,62.799-52.867,112.881-116.858,102.782-5.881-43.806-28.596-78.127-71.884-99.6Z"/>
  <path class="st4" d="M188.589,1533.846c-39.389,21.466-66.571,52.794-71.13,99.484C56.683,1643.271,1.814,1597,.046,1537.932c-1.87-62.473,53.024-112.024,116.758-103.07,6.325,42.357,27.272,78.232,71.784,98.984Z"/>
  <path class="st4" d="M1535.175,190.594c-17.618-43.005-52.735-67.872-98.541-73.776C1425.951,56.615,1472.493,1.587,1531.614.037c62.094-1.628,111.141,49.95,103.538,116.122-45.18,6.424-82.25,31.459-99.977,74.434Z"/>
  <path class="st4" d="M875.847,2129.439l-43.95-50.305c-2.452-2.806-1.149-13.382,1.354-15.628l64.639-57.997-22.043,123.93Z"/>
  <polygon class="st4" points="2242.504 2068.044 2193.695 2127.217 2186.962 2018.082 2242.504 2068.044"/>
  <path class="st4" d="M2035.756,2388.671c-6.82,1.365-10.525,2.328-9.823,1.669l7.048-6.611c1.031-.967,3.961,5.852,2.774,4.941Z"/>
  <rect class="st4" x="2022.165" y="2392.927" width="2.827" height="2.827" transform="translate(-1100.362 2132.1726) rotate(-45)"/>
  <g>
    <g>
      <path class="st0" d="M3597.121,2259.954l-96.238,265.993-33.286-1.135-98.428-271.708-1.787,272.788-27.023.111.113-268.865c.004-9.241-6.775-23.524-13.233-26.32l-32.837-14.214,104.152-4.248,93.626,257.064,91.89-256.708,62.489-.322.075,313.802-46.317.131-3.195-266.369Z"/>
      <path class="st0" d="M6356.039,2344.818c-18.852,20.836-27.707,47.208-27.728,73.168l-.088,108.275-44.992.036-.663-158.593c-.041-9.693-10.045-24.838-17.207-29.267-8.627-5.335-30.388-2.44-38.42,5.359-20.114,19.533-29.242,46.656-29.17,74.223l.283,108.253-45.46-.024-.618-173.706c-.064-17.992-20.217-22.139-38.939-30.096l85.473-17.686,1.93,51.639c17.184-24.188,33.84-45.04,62.129-50.442,33.044-6.31,58.058,13.602,67.722,48.065,18.359-26.364,33.859-46.064,62.598-48.715,16.156-1.491,35.008,2.962,46.512,12.604,9.523,7.981,18.998,28.828,19.09,43.692l1.021,164.659-44.969.033-1.133-158.727c-.069-9.718-10.287-24.531-17.395-29.163-8.75-5.703-31.259-3.222-39.977,6.414Z"/>
      <path class="st0" d="M5809.519,2619.322c-58.163,17.395-146.147,8.033-142.941-57.297l51.492.388c-1.071,32.36,18.156,47.931,43.014,49.286,28.093,1.53,47.226-17.413,47.278-48.204l.114-67.037c-22.396,25.242-47.311,33.972-77.853,28.043-73.357-14.239-80.42-125.203-44.142-189.431,11.091-19.636,39.359-29.756,59.335-30.003,24.588-.304,43.809,11.649,61.842,28.838l1.275-24.03,82.592,2.158-27.389,13.513c-5.229,2.58-10.013,15.023-10.048,22.195l-1.011,206.12c-.137,27.894-17.282,57.602-43.557,65.46ZM5802.373,2360.031c-4.121-16.371-23.199-30.184-36.712-31.021-46.965-2.909-58.6,74.142-42.733,139.206,4.801,19.689,19.904,33.882,37.999,33.895,51.07.037,56.216-83.411,41.446-142.08Z"/>
      <path class="st0" d="M3932.733,2476.128c-22.316-73.071,1.035-163.514,66.857-170.524,30.066-3.202,49.04,6.038,72.992,30.466l.415-89.939c.079-17.068-17.871-21.904-38.409-32.741l83.594-13.511.066,326.323-43.795.166-4.458-24.112c-23.363,22.182-48.299,33.244-78.685,28.183-25.819-4.301-49.739-25.374-58.577-54.312ZM4064.748,2359.918c-6.671-20.709-27.852-32.162-45.767-30.414-46.391,4.526-52.886,87.634-36.09,145.818,5.625,19.486,22.169,31.866,40.015,31.924,51.385.169,60.114-90.609,41.842-147.328Z"/>
      <path class="st0" d="M7651.508,2371.204c-.055-10.215-6.954-24.257-12.316-29.534-6.128-6.031-28.646-8.706-36.297-4.299-28.515,16.424-42.286,48.823-42.35,80.599l-.22,108.78-44.759-.897.044-263.156c.001-8.428-1.146-29.062-8.208-32.545l-34.111-16.821,86.92-14.009.739,162.958c19.679-30.238,37.611-52.957,72.544-56.968,33.403-3.836,62.067,18.802,62.397,54.243l1.554,166.712-45.106-.083-.832-154.979Z"/>
      <path class="st0" d="M6927.295,2423.137l.216,103.585-44.788-.766-.328-170.81c-.035-18.396-15.149-23.051-37.48-32.966l81.451-16.973,2.962,55.469c29.823-47.666,76.824-72.362,114.333-44.57,9.347,6.925,19.878,27.681,19.953,41.908l.883,167.967-45.012.232-1.156-156.018c-.074-9.938-8.249-25.655-15.001-31.008-6.752-5.353-28.947-3.926-36.14.947-28.192,19.096-39.96,50.261-39.892,83.003Z"/>
      <path class="st0" d="M5293.082,2400.978l-1.819,125.189-44.617.166-.646-173.216c-.063-16.83-18.478-22.28-38.229-31.105l82.933-16.86,2.409,55.357c21.06-31.219,41.054-52.208,74.452-55.053,31.922-2.719,59.267,19.602,59.359,52.703l.466,168.169-45.718-.193-.42-152.525c-.03-10.724-5.718-26.241-12.005-32.122-7.664-7.169-30.681-8.38-40.591-.675-15.154,11.783-35.258,38.344-35.575,60.163Z"/>
      <path class="st0" d="M5082.965,2531.469c-36.68-.104-71.231-11.676-86.505-44.17-20.462-43.531-20.27-98.379,1.153-141.568,14.458-29.146,47.35-39.024,77.983-40.397,38.323-1.717,77.238,12.583,93.866,48.685,19.007,41.267,19.116,92.218-.39,133.354-15.095,31.833-50.217,44.198-86.109,44.096ZM5126.16,2358.931c-5.651-24.193-22.235-37.717-43.291-38.079-20.787-.358-38.674,12.875-43.965,36.774-14.347,64.8-10.179,158.697,43.89,157.892,56.165-.837,57.766-94.937,43.367-156.587Z"/>
      <path class="st0" d="M4479.91,2512.693c-24.998-21.514-19.321-61.843,7.325-79.69,29.674-19.875,62.215-24.091,99.378-26.215,2.036-25.309,2.746-52.197-6.633-76.086-4.699-11.969-31.916-13.847-42.084-6.048-9.536,7.313-12.848,21.517-14.119,42.328l-52.484.513c3.988-54.75,59.38-70.118,116.42-59.205,26.571,5.083,44.912,27.587,45.083,54.966l1.014,162.773-45.098.496-2.818-25.07c-27.319,32.96-70.47,41.805-105.986,11.238ZM4583.565,2472.253l2.946-49.032c-26.735,2.315-47.548,5.446-62.415,21.514-13.137,14.198-10.965,46.601,4.601,57.342,21.33,14.719,53.291-3.575,54.868-29.824Z"/>
      <path class="st0" d="M7759.289,2509.295c-24.981-26.023-11.565-65.542,18.103-81.722,28.091-15.319,56.491-18.487,92.26-20.687l-.739-53.606c-.292-21.224-16.347-34.417-33.372-33.357-21.338,1.329-32.5,18.564-27.696,46.671l-55.184,1.599c2.71-36.257,29.183-58.191,63.787-61.629,27.071-2.689,56.471-3.207,79.807,14.802,11.752,9.069,18.123,35.292,18.174,51.067l.5,153.651-44.244.344-3.181-23.759c-33.882,34.27-75.784,40.409-108.215,6.625ZM7863.01,2479.7c5.731-16.925,5.871-37.354,5.377-56.316-23.61,1.136-47.783,5.564-63.009,22.142-14.138,15.394-8.875,43.169,3.526,56.766,20.831,11.073,45.402,3.111,54.106-22.592Z"/>
      <path class="st0" d="M3799.688,2496.203c24.044,17.543,57.992,9.468,84.423,7.905,3.725,10.814-5.238,18.484-17.742,21.253-46.47,10.289-101.775,11.027-134.501-30.416-33.659-42.625-35.071-113.701-5.511-158.932,23.432-35.854,110.427-44.434,143.98-5.918,14.692,16.865,19.903,42.84,18.279,62.635l-131.765.346c-1.104,37.719,9.725,78.968,42.839,103.129ZM3842.852,2374.503c-1.965-24.452-5.94-38.494-16.38-47.068-7.586-6.23-31.966-8.268-41.033-4.057-19.832,9.212-26.879,28.984-28.742,51.561l86.155-.436Z"/>
      <path class="st0" d="M6610.862,2498.683c21.542,13.229,53.61,8.257,77.627,4.295,1.478.28,5.38,14.63,1.856,15.84l-16.311,5.6c-42.355,14.541-96.242,12.462-129.87-23.762-39.395-42.437-45.477-121.762-7.122-167.685,31.307-37.485,98.035-35.833,133.244-9.114,21.587,16.382,23.999,43.656,25.714,68.716l-133.753.391c1.025,40.416,10.818,82.508,48.615,105.719ZM6649.109,2374.537c1.609-38.424-18.972-56.7-48.553-52.848-19.971,2.6-37.66,24.167-36.658,53.11l85.211-.263Z"/>
      <path class="st0" d="M6003.593,2492.871c23.173,19.99,59.31,15.064,86.744,10.029l3.426,12.635c2.345,8.648-101.399,38.839-150.068-17.32-36.625-42.261-41.677-121.25-4.94-165.068,33.112-39.494,96.504-33.577,134.615-10.25,19.202,21.604,25.376,44.74,24.385,69.722l-133.239.285c.839,37.023,9.221,74.213,39.076,99.967ZM6051.386,2374.534c1.681-38.52-18.779-56.856-48.631-52.996-19.812,2.562-37.675,24.406-36.627,53.253l85.258-.257Z"/>
      <path class="st0" d="M8042.723,2327.622l-.117,199.068-44.65-.299-.199-197.182-37.057-2.863-.096-14.856c-.018-2.761,10.178-.24,13.16-.545l21.886-2.237c6.695-.684-11.336-77.589,38.351-101.386,25.4-12.165,59.082-9.286,85.157.107,21.756,7.838,33.023,25.986,33.512,47.577l-50.392-1.157c-1.016-19.394-8.235-33.86-20.41-38.394-13.934-5.189-35.887,6.579-36.635,23.266l-3.209,71.566,62.456.223-.136,16.893-61.622.219Z"/>
      <path class="st0" d="M4432.003,2529.308c-49.275,7.357-97.842-1.689-97.991-41.456l-.6-159.683-36.355-1.315.655-16.121,35.066-.953,1.564-39.144,44.554-35.39.954,75.01,60.895.346-.036,16.364-61.147.916-.095,151.443c-.005,7.567,3.854,22.362,9.452,25.789,19.196,11.754,46.583,3.143,45.898,7.264l-2.816,16.929Z"/>
      <path class="st0" d="M8259.771,2529.244c-49.178,7.761-97.896-1.941-98.066-41.339l-.688-159.776-36.052-1.26.633-16.216,34.715-.728,1.92-38.98,44.52-35.82,1.018,75.136,60.874.337-.037,16.364-61.113.923-.187,151.39c-.009,7.526,3.201,23.294,9.225,26.071,24.416,11.252,46.968,3.103,46.291,6.879l-3.052,17.018Z"/>
      <path class="st0" d="M4813.717,2529.247c-17.398,1.625-42.698,2.337-59.288-.001-26.739-3.769-39.928-25.817-40.01-50.621l-.499-150.519-35.132-1.22.103-16.003,34.205-1.774,3.039-38.253,44.344-35.891,1.244,75.323,59.852.258.502,16.554-60.651.74-.332,151.443c-.017,7.686,3.272,23.021,9.173,26.087,21.884,11.368,47.031,2.774,46.33,6.905l-2.881,16.972Z"/>
      <path class="st0" d="M7359.953,2459.257c18.921,49.687,53.755,52.938,108.901,44.483l-.136,17.905c-59.624,18.121-125.304,14.318-152.728-38.221-23.534-45.086-24.873-106.977,6.715-148.374,27.306-35.785,78.682-35.459,116.441-20.377,24.054,9.608,37.713,26.975,37.092,53.385l-53.636-.264c1.412-22.002-7.295-42.426-23.725-46.636-20.459-5.242-38.865,5.522-44.08,27.005-8.875,36.564-8.533,75.144,5.157,111.093Z"/>
      <path class="st0" d="M7257.601,2487.844c-13.11,46.325-81.359,50.156-139.7,36.487v-35.632c27.778,20.629,59.63,29.426,88.313,16.841,8.17-3.585,15.85-20.732,14.296-28.292-1.554-7.556-10.519-21.583-17.088-25.74l-62.29-39.42c-20.062-12.696-27.482-36.628-23.101-58.715,9.457-47.679,71.009-56.519,127.28-41.11l-.091,32.578c-24.168-16.807-49.411-27.807-74.088-16.694-7.42,3.342-14.484,19.945-12.882,26.832,9.825,42.241,122.527,50.976,99.353,132.864Z"/>
      <path class="st0" d="M5623.236,2480.469c-7.062,50.28-80.049,60.609-140.842,42.904l-.232-31.468c27.144,15.018,51.696,23.531,80.048,17.286,8.924-1.966,19.722-16.449,20.789-24.126,1.2-8.633-6.304-26.747-14.164-31.701l-62.357-39.297c-20.732-13.065-28.962-39.133-23.994-62.304,10.369-48.362,72.835-53.931,127.981-39.046l-.53,31.832c-37.87-26.298-79.493-27.631-88.146-2.94-3.272,9.337,3.759,28.247,12.462,33.866l64.702,41.77c20.74,13.389,27.706,38.853,24.283,63.223Z"/>
      <path class="st0" d="M4876.472,2526.259l-.121-168.916c-.005-6.762-5.746-20.431-11.312-22.844l-28.42-12.324,84.975-16.833.096,220.915-45.218.003Z"/>
      <path class="st0" d="M6755.262,2526.255l-.141-168.858c-.006-6.879-5.443-20.775-11.182-23.209l-28.272-11.993,84.719-16.745.085,220.807h-45.209Z"/>
      <path class="st0" d="M4201.147,2526.37l-.312-167.846c-.012-6.64-4.351-20.567-9.674-23.145l-28.186-13.648,83.182-15.861-.004,220.527-45.005-.028Z"/>
    </g>
    <path class="st0" d="M6770.706,2210.221c14.328-4.25,30.625,5.178,34.784,17.123,5.683,16.321-.788,32.348-17.248,37.341-13.959,4.234-32.056-2.14-36.959-17.001-4.681-14.185,2.286-32.38,19.424-37.463Z"/>
    <path class="st0" d="M4891.927,2210.118c13.775-4.071,30.718,5.622,34.789,17.206,5.655,16.091-1.344,32.182-17.352,37.09-14.221,4.36-32.007-1.87-36.901-16.765-4.642-14.129,2.328-32.468,19.464-37.532Z"/>
    <path class="st0" d="M4212.497,2211.453c15.621-6.702,32.053,1.904,38.316,14.597,6.371,12.911-.472,32.14-12.022,36.823-14.867,6.028-32.538,1.619-37.981-7.307-9.307-15.262-6.336-36.381,11.686-44.114Z"/>
    <g>
      <path class="st0" d="M5834.217,2196.54c-109.561-23.316-177.798-104.086-175.692-222.411l194.489-.135c2.509,78.637,25.216,149.333,96.735,173.601,53.535,18.166,117.844,16.459,167.756-13.616,46.332-27.918,66.116-82.6,66.391-135.614l1.434-276.202c-29.816,39.391-55.697,78.665-100.435,98.492-72.061,31.935-153.371,31.663-228.963,7.099-63.323-20.578-112.087-67.468-144.799-125.698-67.985-121.022-64.388-302.143-32.395-438.8,13.385-57.173,35.911-107.699,73.076-153.722,73.948-91.573,213.841-113.672,320.422-69.851,47.639,19.587,78.692,56.389,112.418,98.758l1.284-101.794,309.66.008.37,33.56c-36.926.967-71.049,4.006-100.378,26.605-22.975,17.703-35.974,49.523-35.993,81.298l-.409,712.248c-.098,170.248-54.02,289.226-228.972,316.939-98.909,15.668-197.423,10.213-296.001-10.765ZM6157.199,1653.843c17.773-41.452,26.925-81.649,26.864-125.378l-.306-219.006c-.086-61.237-23.339-121.252-68.068-162.061-38.284-34.929-88.877-44.798-140.464-29.469-112.164,33.328-126.774,197.386-127.113,310.775-.311,104.048,10.567,267.234,102.587,309.79,80.748,37.343,171.353-2.673,206.501-84.651Z"/>
      <path class="st0" d="M3839.452,1844.978l-190.578.564.034-1090.102-165.604,1.42c-37.027.317-78.931,14.164-103.235,40.515-32.481,35.217-35.578,80.438-40.658,126.887l-48.152.62,6.864-250.845,890.833-.057,7.196,256.367-46.5.287c-1.472-48.904-5.124-97.378-41.006-133.39-26.723-26.82-69.442-40.288-108.346-40.585l-160.893-1.23.045,1089.549Z"/>
      <path class="st0" d="M6604.374,1545.031c78.227-114.626,278.901-145.123,421.75-146.907l-2.291-184.975c-.499-40.281-12.181-81.794-38.655-111.702-21.076-23.811-56.04-27.365-86.223-24.865-91.999,9.388-107.313,86.397-106.015,176.514l-205.713-.037c16.173-104.833,70.887-183.912,172.256-214.163,83.187-24.825,169.346-25.754,255.154-11.673,58.551,9.608,113.756,38.799,143.996,91.054,26.851,46.4,38.978,100.614,39.079,155.829l1.047,571.219-172.179.071-.721-102.086-72.29,71.912c-96.2,70.76-232.275,65.529-321.146-13.452-76.232-67.748-84.741-173.663-28.046-256.737ZM6964.054,1731.918c38.379-42.375,59.796-95.479,60.217-152.383l.885-119.573c-60.465-.218-115.512,8.696-168.266,31.191-70.122,29.901-108.449,95.453-96.374,171.489,5.498,34.625,18.674,74.897,51.424,93.959,48.911,28.468,108.878,13.252,152.114-24.682Z"/>
      <path class="st0" d="M4897.345,1744.157l.185,74.423c-147.292,53.622-327.631,69.386-465.42-2.935-85.499-44.875-146.015-119.001-175.611-211.099-38.314-119.226-40.316-246.62-5.411-366.702,28.314-97.409,98.514-172.22,196.372-200.115,88.151-25.128,180.898-26.659,269.582-3.679,145.8,37.78,199.877,172.762,195.656,314.185l-496.125-.012c3.525,177.62,62.02,367.034,243.387,416.401,80.042,13.448,156.884,8.335,237.385-20.467ZM4739.769,1279.386c-.822-60.086-9.836-123.283-53.431-165.278-57.727-55.608-154.315-47.368-209.677,6.151-38.407,45.927-56.007,97.985-58.86,159.339l321.968-.213Z"/>
      <path class="st0" d="M5110.898,1845.526l-1.034-630.891c-.064-39.314-19.558-77.618-52.807-93.258-26.634-12.529-51.435-12.744-83.144-15.323l1.446-32.971,307.964-54.621,1.742,232.457c24.218-55.481,36.381-107.657,72.846-152.186,35.041-50.237,86.97-81.454,149.401-80.387l91.534,8.496.008,163.518c-101.593-44.494-221.615-16.57-275.423,74.656-24.978,42.349-35.213,88.802-39.779,138.895l.042,441.138-172.795.477Z"/>
      <path class="st0" d="M7466.274,1251.006l-8.038-69.93c-3.464-30.137-27.185-59.163-57.369-63.935l-73.282-11.585.931-32.065,308.021-54.864,2.45,232.534c26.503-65.554,43.438-121.622,87.3-170.412,32.182-35.798,72.799-60.46,122.821-61.909l104.51,7.966-.233,163.677c-82.389-35.385-174.121-27.087-241.446,31.938-53.568,46.964-71.831,127.538-74.441,201.441l.124,421.607-171.48-.284.132-594.179Z"/>
      <path class="st0" d="M8488.627,1213.911c-81.495,73.359-200.503,78.542-283.203,18.465-80.108-58.194-113.69-163.734-68.733-254.008,13.195-26.496,30.465-53.567,52.037-71.456,88.336-73.257,209.437-72.641,295.569,1.955,92.082,79.75,94.577,223.806,4.331,305.043ZM8514.295,1022.982c-8.331-35.806-31.769-66.263-60.326-90.563-66.453-56.546-170.133-55.537-236.967-.286-41.512,34.318-63.804,82.83-63.254,132.132.565,50.724,22.549,99.41,63.276,130.774,61.512,47.371,137.169,56.193,206.594,19.715,71.421-37.526,109.116-112.524,90.677-191.772Z"/>
      <path class="st0" d="M8315.6,1068.758l-.14,73.088c-.012,6.077,14.81,13.791,20.268,15.643l13.156,4.464c2.86.97,1.34,11.574.499,15.737l-122.175-.017c-.524-5.187-1.738-14.186.888-15.094l13.506-4.668c8.658-2.992,20.857-13.772,20.775-24.872l-1.155-156.669c-.177-7.844-22.024-15.409-32.706-16.308l.202-19.553,155.335,1.637c35.038.369,59.427,26.477,59.558,56.642.138,32.002-22.57,53.743-61.76,57.791,40.479,41.923,38.563,84.229,56.914,87.015,13.775,2.091,11.342-30.62,15.276-30.707l14.381-.318c6.233-.138,3.397,38.61-18.48,58.823-11.583,10.703-36.319,10.88-50.995,5.717-11.801-4.151-24.514-24.892-27.876-39.022l-10.847-45.596c-3.771-15.851-21.206-31.04-44.623-23.734ZM8315.786,1043.656c27.823,7.074,59.102-1.89,68.073-26.989,6.958-19.468-.849-42.097-14.848-51.143-11.837-7.648-47.141-9.924-50.727,7.295-4.601,22.094-3.144,45.591-2.498,70.836Z"/>
    </g>
  </g>
  <g>
    <path class="st1" d="M10890.116,1865.578l-58.893,7.421-62.217,1.984-48.667.024-65.848-5.857c-82.967-10.913-162.522-36.775-231.274-84.423l-49.902-38.386c-133.466-117.584-182.992-321.577-199.912-493.133l-2.941-57.534-2.955-45.284c-2.966-45.449-2.804-90.911.131-136.399l6.223-96.473c5.704-88.415,24.263-173.042,52.121-257.353,58.199-176.136,179.95-303.902,358.955-357.058,35.38-10.506,69.915-18.186,106.866-20.895l28.825-2.114,82.137.012,40.025,2.216c39.32,2.177,76.972,10.432,114.534,21.375,67.034,19.53,125.47,52.118,178.136,97.826,91.729,79.61,143.389,195.481,173.759,312.323,13.303,51.181,23.922,100.955,28.652,153.775l6.292,70.254,3.488,38.599.062,208.57-3.761,41.013-5.496,71.109-5.964,45.735c-10.14,77.767-31.338,152.875-62.735,224.582l-44.437,86.51c-77.259,123.79-191.342,186.495-335.206,211.578ZM10730.245,1755.825l59.568.618c70.146-5.026,132.776-36.162,174.39-93.946,74.273-103.134,93.024-240.94,102.111-366.63l2.691-37.226,2.907-77.093c2.789-73.973,2.764-147.462-.013-221.427l-2.905-77.399c-3.586-95.533-16.966-189.539-45.324-280.83-22.835-73.512-68.35-149.959-138.937-180.632-55.894-24.288-108.867-27.92-170.224-19.865-42.583,5.59-80.843,23.435-114.911,50.258-41.324,32.534-69.49,77.758-88.715,126.842-12.588,32.138-23.14,63.201-30.775,97.05-18.314,81.191-26.108,161.458-31.637,244.235l-2.236,114.834-.564,16.241.053,79.575,2.717,105.699c6.248,87.801,13.915,173.412,32.982,259.532,14.24,64.315,38.813,125.303,79.557,176.553,32.313,40.644,77.12,65.192,127.462,77.694l41.801,5.919Z"/>
    <path class="st1" d="M9570.779,532.903c-26.6-25.421-81.598-27.392-120.62-22.474l-48.233,6.079-33.831,5.499-43.534,7.856.259-65.85c70.612-25.423,137.445-51.305,205.622-81.061l117.134-51.122,98.456-46.679,118.763.014c4.324,1.838,7.248,5.494,8.426,11.952l.015,1551.045-269.857-.592-.054-1234.296c-4.939-31.172-9.893-58.72-32.546-80.37Z"/>
    <path class="st1" d="M10418.896,2351.828c-33.249-3.425-60.978,13.139-79.332,40.114-20.454,30.06-38.052,64.594-41.014,103.493-5.472,71.869-.473,143.683-2.301,216.986-.181,7.242-2.984,13.842-10.69,13.847l-70.822.05c-3.934.003-10.842-3.789-14.105-6.896l.021-529.598c0-20.142-10.571-39.388-28.709-46.26-13.997-5.303-27.525-5.528-44.2-7.509-1.373-7.66-1.362-15.932.404-24.625l150.252-19.76c5.911-.777,17.799-2.8,17.819,7.199l.598,294.023,38.022-52.7c34.94-48.428,104.665-67.302,161.548-42.758,44.969,19.403,68.547,67.493,68.75,115.616l1.264,299.173c.025,5.991-5.33,13.825-11.055,13.852l-76.926.371c-3.157.015-10.453-5.272-10.467-8.829l-1.209-319.497c-.098-25.97-26.113-44.055-47.848-46.294Z"/>
    <path class="st1" d="M9789.698,2527.643c37.754-22.03,79.039-33.468,121.623-38.322l67.442-7.688-.585-102.129c-.083-14.507-8.249-33.528-17.581-43.956-17.935-20.042-46.891-22.767-70.458-12.779-19.609,8.31-29.835,27.465-32.368,47.795l-5.412,43.433-106.134-.302c1.552-25.787,5.189-49.08,19.006-67.89,35.177-47.888,97.907-58.065,156.365-57.36,19.679.237,38.046,1.433,56.861,5.901,56.426,13.4,89.902,60.731,90.032,118.958l.693,309.367-76.356,1.181c-3.466.054-11.647-4.273-13.559-6.359l-1.943-50.086c-27.693,37.938-62.448,62.601-106.652,65.155-40.016,2.312-78.807-6.825-107.299-35.581-45.397-45.818-35.592-133.209,26.324-169.338ZM9845.749,2654.744c21.811,29.015,56.787,34.156,86.966,16.296,25.665-15.189,41.768-45.553,46.558-76.821,3.891-25.399,1.136-50.338,1.627-77.661l-19.292-.955c-26.583-1.316-67.259,12.397-90.555,26.836-19.299,11.962-34.286,32.716-34.905,56.026-.51,19.212-1.856,41.039,9.601,56.279Z"/>
    <path class="st1" d="M9387.897,2612.047l13.129-.68c8.592-.445,6.424,45.706,36.648,70.338,11.647,9.492,27.661,13.472,42.96,9.936,29.473-6.812,45.851-50.56,45.877-79.886l.366-416.097c.014-16.104-12.77-29.636-25.632-35.034-29.422-12.35-48.408,1.867-53.371-16.377-1.094-4.023,1.878-15.162,6.102-15.69l177.318-22.189-.193,480.276-7.075,39.246c-19.156,106.268-157.723,129.77-254.054,92.53-37.8-14.613-59.772-47.962-63.661-86.753l-.218-10.072c-.058-2.677,6.866-4.835,9.772-5.031l31.82-2.142,40.212-2.374Z"/>
    <path class="st3" d="M10730.245,1755.825l-41.801-5.919c-50.342-12.502-95.15-37.05-127.462-77.694-40.744-51.249-65.317-112.238-79.557-176.553-19.068-86.12-26.734-171.732-32.982-259.532l-2.717-105.699-.053-79.575.564-16.241,2.236-114.834c5.529-82.777,13.323-163.044,31.637-244.235,7.635-33.85,18.187-64.912,30.775-97.05,19.225-49.084,47.391-94.307,88.715-126.842,34.068-26.822,72.329-44.667,114.911-50.258,61.357-8.055,114.33-4.423,170.224,19.865,70.587,30.673,116.102,107.12,138.937,180.632,28.358,91.291,41.737,185.298,45.324,280.83l2.905,77.399c2.777,73.965,2.802,147.454.013,221.427l-2.907,77.093-2.691,37.226c-9.087,125.69-27.838,263.496-102.111,366.63-41.614,57.784-104.244,88.921-174.39,93.946l-59.568-.618Z"/>
    <path class="st3" d="M9845.749,2654.744c-11.456-15.24-10.111-37.067-9.601-56.279.619-23.31,15.607-44.064,34.905-56.026,23.296-14.44,63.972-28.152,90.555-26.836l19.292.955c-.491,27.323,2.264,52.262-1.627,77.661-4.79,31.268-20.893,61.632-46.558,76.821-30.179,17.86-65.155,12.72-86.966-16.296Z"/>
    <path class="st3" d="M11239.311,2428.21l-146.898.171,3.4-33.631c2.115-20.92,13.392-37.522,28.419-51.699,5.257-7.802,12.662-13.519,22.299-15.133l34.308-5.744c23.337-3.907,46.14,6.612,59.96,26.208,15.928,22.585,23.114,48.693,19.468,76.543l-20.957,3.284Z"/>
    <path class="st1" d="M11186.817,2670.266c42.772,26.265,106.442,16.395,154.127,8.529,2.934.556,10.682,29.049,3.685,31.451l-32.386,11.118c-84.096,28.871-191.087,24.744-257.855-47.179-78.218-84.258-90.294-241.758-14.141-332.939,62.159-74.427,194.648-71.146,264.556-18.095,42.861,32.526,47.651,86.678,51.055,136.436l-265.566.776c2.035,80.247,21.479,163.82,96.525,209.904ZM11262.756,2423.775c3.195-76.29-37.668-112.577-96.402-104.929-39.652,5.163-74.774,47.983-72.785,105.451l169.187-.521Z"/>
    <path class="st1" d="M10708.581,2411.519l-4.258-37.047c-1.835-15.965-14.402-31.343-30.393-33.871l-38.823-6.137.493-16.987,163.181-29.065,1.298,123.19c14.04-34.729,23.012-64.432,46.249-90.28,17.049-18.965,38.567-32.03,65.067-32.798l55.366,4.22-.123,86.711c-43.647-18.746-92.244-14.35-127.911,16.92-28.379,24.88-38.054,67.566-39.437,106.718l.066,223.355-90.845-.15.07-314.779Z"/>
  </g>
  <line class="st2" x1="8925.718" y1="133.556" x2="8925.718" y2="2855.522"/>
</svg>